<svg xmlns="http://www.w3.org/2000/svg" xmlns:xlink="http://www.w3.org/1999/xlink" width="1890" zoomAndPan="magnify" viewBox="0 0 1417.5 567.000005" height="756" preserveAspectRatio="xMidYMid meet" version="1.0"><defs><g/><clipPath id="3097ee18bf"><path d="M 20 49 L 441 49 L 441 470 L 20 470 Z M 20 49 " clip-rule="nonzero"/></clipPath><clipPath id="ec5acab395"><path d="M 214.25 96.484375 C 221.136719 89.199219 226.503906 87.453125 230.105469 87.453125 C 233.707031 87.453125 239.074219 89.199219 245.960938 96.484375 C 252.886719 103.804688 260 115.425781 266.378906 131.371094 C 277.480469 159.121094 285.207031 197.109375 286.988281 240.191406 L 173.222656 240.191406 C 175.003906 197.109375 182.730469 159.121094 193.828125 131.371094 C 200.207031 115.425781 207.324219 103.804688 214.25 96.484375 Z M 135.007812 240.191406 C 136.804688 193.085938 145.210938 150.109375 158.378906 117.191406 C 160.820312 111.085938 163.464844 105.226562 166.320312 99.679688 C 108.648438 122.75 66.402344 176.171875 59.324219 240.191406 Z M 59.324219 278.375 L 135.007812 278.375 C 136.804688 325.480469 145.210938 368.457031 158.378906 401.378906 C 160.820312 407.480469 163.464844 413.34375 166.320312 418.886719 C 108.648438 395.816406 66.402344 342.394531 59.324219 278.375 Z M 20.089844 259.285156 C 20.089844 143.296875 114.117188 49.269531 230.105469 49.269531 C 346.09375 49.269531 440.121094 143.296875 440.121094 259.285156 C 440.121094 375.269531 346.09375 469.296875 230.105469 469.296875 C 114.117188 469.296875 20.089844 375.269531 20.089844 259.285156 Z M 400.886719 240.191406 C 393.808594 176.171875 351.5625 122.75 293.890625 99.679688 C 296.746094 105.226562 299.390625 111.085938 301.832031 117.191406 C 315 150.109375 323.40625 193.085938 325.203125 240.191406 Z M 325.203125 278.375 L 400.886719 278.375 C 393.808594 342.394531 351.5625 395.816406 293.890625 418.886719 C 296.746094 413.34375 299.390625 407.480469 301.832031 401.378906 C 315 368.457031 323.40625 325.480469 325.203125 278.375 Z M 286.988281 278.375 C 285.207031 321.457031 277.480469 359.445312 266.378906 387.195312 C 260 403.140625 252.886719 414.761719 245.960938 422.082031 C 239.074219 429.367188 233.707031 431.113281 230.105469 431.113281 C 226.503906 431.113281 221.136719 429.367188 214.25 422.082031 C 207.324219 414.761719 200.207031 403.140625 193.828125 387.195312 C 182.730469 359.445312 175.003906 321.457031 173.222656 278.375 Z M 286.988281 278.375 " clip-rule="evenodd"/></clipPath><linearGradient x1="12" gradientTransform="matrix(19.092255, 0.000000000000000592, -0.000000000000000592, 19.092255, 0.998233, 30.176359)" y1="1.000001" x2="12" gradientUnits="userSpaceOnUse" y2="22.999999" id="6b05c42bf2"><stop stop-opacity="1" stop-color="rgb(8.999634%, 77.999878%, 100%)" offset="0"/><stop stop-opacity="1" stop-color="rgb(9.065247%, 77.789307%, 100%)" offset="0.00390625"/><stop stop-opacity="1" stop-color="rgb(9.130859%, 77.580261%, 100%)" offset="0.0078125"/><stop stop-opacity="1" stop-color="rgb(9.196472%, 77.36969%, 100%)" offset="0.0117187"/><stop stop-opacity="1" stop-color="rgb(9.263611%, 77.160645%, 100%)" offset="0.015625"/><stop stop-opacity="1" stop-color="rgb(9.329224%, 76.950073%, 100%)" offset="0.0195312"/><stop stop-opacity="1" stop-color="rgb(9.394836%, 76.741028%, 100%)" offset="0.0234375"/><stop stop-opacity="1" stop-color="rgb(9.460449%, 76.530457%, 100%)" offset="0.0273437"/><stop stop-opacity="1" stop-color="rgb(9.527588%, 76.321411%, 100%)" offset="0.03125"/><stop stop-opacity="1" stop-color="rgb(9.593201%, 76.11084%, 100%)" offset="0.0351562"/><stop stop-opacity="1" stop-color="rgb(9.658813%, 75.901794%, 100%)" offset="0.0390625"/><stop stop-opacity="1" stop-color="rgb(9.724426%, 75.691223%, 100%)" offset="0.0429688"/><stop stop-opacity="1" stop-color="rgb(9.791565%, 75.482178%, 100%)" offset="0.046875"/><stop stop-opacity="1" stop-color="rgb(9.857178%, 75.271606%, 100%)" offset="0.0507812"/><stop stop-opacity="1" stop-color="rgb(9.922791%, 75.062561%, 100%)" offset="0.0546875"/><stop stop-opacity="1" stop-color="rgb(9.988403%, 74.85199%, 100%)" offset="0.0585937"/><stop stop-opacity="1" stop-color="rgb(10.055542%, 74.642944%, 100%)" offset="0.0625"/><stop stop-opacity="1" stop-color="rgb(10.121155%, 74.432373%, 100%)" offset="0.0664062"/><stop stop-opacity="1" stop-color="rgb(10.186768%, 74.223328%, 100%)" offset="0.0703125"/><stop stop-opacity="1" stop-color="rgb(10.25238%, 74.012756%, 100%)" offset="0.0742187"/><stop stop-opacity="1" stop-color="rgb(10.319519%, 73.803711%, 100%)" offset="0.078125"/><stop stop-opacity="1" stop-color="rgb(10.385132%, 73.59314%, 100%)" offset="0.0820312"/><stop stop-opacity="1" stop-color="rgb(10.452271%, 73.384094%, 100%)" offset="0.0859375"/><stop stop-opacity="1" stop-color="rgb(10.517883%, 73.173523%, 100%)" offset="0.0898437"/><stop stop-opacity="1" stop-color="rgb(10.583496%, 72.964478%, 100%)" offset="0.09375"/><stop stop-opacity="1" stop-color="rgb(10.649109%, 72.753906%, 100%)" offset="0.0976562"/><stop stop-opacity="1" stop-color="rgb(10.716248%, 72.544861%, 100%)" offset="0.101562"/><stop stop-opacity="1" stop-color="rgb(10.78186%, 72.33429%, 100%)" offset="0.105469"/><stop stop-opacity="1" stop-color="rgb(10.847473%, 72.125244%, 100%)" offset="0.109375"/><stop stop-opacity="1" stop-color="rgb(10.913086%, 71.914673%, 100%)" offset="0.113281"/><stop stop-opacity="1" stop-color="rgb(10.980225%, 71.705627%, 100%)" offset="0.117187"/><stop stop-opacity="1" stop-color="rgb(11.045837%, 71.495056%, 100%)" offset="0.121094"/><stop stop-opacity="1" stop-color="rgb(11.11145%, 71.286011%, 100%)" offset="0.125"/><stop stop-opacity="1" stop-color="rgb(11.177063%, 71.076965%, 100%)" offset="0.128906"/><stop stop-opacity="1" stop-color="rgb(11.244202%, 70.86792%, 100%)" offset="0.132812"/><stop stop-opacity="1" stop-color="rgb(11.309814%, 70.657349%, 100%)" offset="0.136719"/><stop stop-opacity="1" stop-color="rgb(11.375427%, 70.448303%, 100%)" offset="0.140625"/><stop stop-opacity="1" stop-color="rgb(11.44104%, 70.237732%, 100%)" offset="0.144531"/><stop stop-opacity="1" stop-color="rgb(11.508179%, 70.028687%, 100%)" offset="0.148438"/><stop stop-opacity="1" stop-color="rgb(11.573792%, 69.818115%, 100%)" offset="0.152344"/><stop stop-opacity="1" stop-color="rgb(11.639404%, 69.60907%, 100%)" offset="0.15625"/><stop stop-opacity="1" stop-color="rgb(11.705017%, 69.398499%, 100%)" offset="0.160156"/><stop stop-opacity="1" stop-color="rgb(11.772156%, 69.189453%, 100%)" offset="0.164063"/><stop stop-opacity="1" stop-color="rgb(11.837769%, 68.978882%, 100%)" offset="0.167969"/><stop stop-opacity="1" stop-color="rgb(11.903381%, 68.769836%, 100%)" offset="0.171875"/><stop stop-opacity="1" stop-color="rgb(11.968994%, 68.559265%, 100%)" offset="0.175781"/><stop stop-opacity="1" stop-color="rgb(12.036133%, 68.35022%, 100%)" offset="0.179688"/><stop stop-opacity="1" stop-color="rgb(12.101746%, 68.139648%, 100%)" offset="0.183594"/><stop stop-opacity="1" stop-color="rgb(12.167358%, 67.930603%, 100%)" offset="0.1875"/><stop stop-opacity="1" stop-color="rgb(12.232971%, 67.720032%, 100%)" offset="0.191406"/><stop stop-opacity="1" stop-color="rgb(12.30011%, 67.510986%, 100%)" offset="0.195312"/><stop stop-opacity="1" stop-color="rgb(12.365723%, 67.300415%, 100%)" offset="0.199219"/><stop stop-opacity="1" stop-color="rgb(12.431335%, 67.09137%, 100%)" offset="0.203125"/><stop stop-opacity="1" stop-color="rgb(12.496948%, 66.880798%, 100%)" offset="0.207031"/><stop stop-opacity="1" stop-color="rgb(12.564087%, 66.671753%, 100%)" offset="0.210937"/><stop stop-opacity="1" stop-color="rgb(12.6297%, 66.461182%, 100%)" offset="0.214844"/><stop stop-opacity="1" stop-color="rgb(12.696838%, 66.252136%, 100%)" offset="0.21875"/><stop stop-opacity="1" stop-color="rgb(12.762451%, 66.041565%, 100%)" offset="0.222656"/><stop stop-opacity="1" stop-color="rgb(12.828064%, 65.83252%, 100%)" offset="0.226562"/><stop stop-opacity="1" stop-color="rgb(12.893677%, 65.621948%, 100%)" offset="0.230469"/><stop stop-opacity="1" stop-color="rgb(12.960815%, 65.412903%, 100%)" offset="0.234375"/><stop stop-opacity="1" stop-color="rgb(13.026428%, 65.202332%, 100%)" offset="0.238281"/><stop stop-opacity="1" stop-color="rgb(13.092041%, 64.993286%, 100%)" offset="0.242188"/><stop stop-opacity="1" stop-color="rgb(13.157654%, 64.782715%, 100%)" offset="0.246094"/><stop stop-opacity="1" stop-color="rgb(13.224792%, 64.573669%, 100%)" offset="0.25"/><stop stop-opacity="1" stop-color="rgb(13.290405%, 64.363098%, 100%)" offset="0.253906"/><stop stop-opacity="1" stop-color="rgb(13.356018%, 64.154053%, 100%)" offset="0.257812"/><stop stop-opacity="1" stop-color="rgb(13.421631%, 63.943481%, 100%)" offset="0.261719"/><stop stop-opacity="1" stop-color="rgb(13.48877%, 63.734436%, 100%)" offset="0.265625"/><stop stop-opacity="1" stop-color="rgb(13.554382%, 63.525391%, 100%)" offset="0.269531"/><stop stop-opacity="1" stop-color="rgb(13.619995%, 63.316345%, 100%)" offset="0.273438"/><stop stop-opacity="1" stop-color="rgb(13.685608%, 63.105774%, 100%)" offset="0.277344"/><stop stop-opacity="1" stop-color="rgb(13.752747%, 62.896729%, 100%)" offset="0.28125"/><stop stop-opacity="1" stop-color="rgb(13.818359%, 62.686157%, 100%)" offset="0.285156"/><stop stop-opacity="1" stop-color="rgb(13.883972%, 62.477112%, 100%)" offset="0.289062"/><stop stop-opacity="1" stop-color="rgb(13.949585%, 62.266541%, 100%)" offset="0.292969"/><stop stop-opacity="1" stop-color="rgb(14.016724%, 62.057495%, 100%)" offset="0.296875"/><stop stop-opacity="1" stop-color="rgb(14.082336%, 61.846924%, 100%)" offset="0.300781"/><stop stop-opacity="1" stop-color="rgb(14.147949%, 61.637878%, 100%)" offset="0.304688"/><stop stop-opacity="1" stop-color="rgb(14.213562%, 61.427307%, 100%)" offset="0.308594"/><stop stop-opacity="1" stop-color="rgb(14.280701%, 61.218262%, 100%)" offset="0.3125"/><stop stop-opacity="1" stop-color="rgb(14.346313%, 61.00769%, 100%)" offset="0.316406"/><stop stop-opacity="1" stop-color="rgb(14.411926%, 60.798645%, 100%)" offset="0.320312"/><stop stop-opacity="1" stop-color="rgb(14.477539%, 60.588074%, 100%)" offset="0.324219"/><stop stop-opacity="1" stop-color="rgb(14.544678%, 60.379028%, 100%)" offset="0.328125"/><stop stop-opacity="1" stop-color="rgb(14.610291%, 60.168457%, 100%)" offset="0.332031"/><stop stop-opacity="1" stop-color="rgb(14.675903%, 59.959412%, 100%)" offset="0.335938"/><stop stop-opacity="1" stop-color="rgb(14.741516%, 59.74884%, 100%)" offset="0.339844"/><stop stop-opacity="1" stop-color="rgb(14.808655%, 59.539795%, 100%)" offset="0.34375"/><stop stop-opacity="1" stop-color="rgb(14.874268%, 59.329224%, 100%)" offset="0.347656"/><stop stop-opacity="1" stop-color="rgb(14.941406%, 59.120178%, 100%)" offset="0.351562"/><stop stop-opacity="1" stop-color="rgb(15.007019%, 58.909607%, 100%)" offset="0.355469"/><stop stop-opacity="1" stop-color="rgb(15.072632%, 58.700562%, 100%)" offset="0.359375"/><stop stop-opacity="1" stop-color="rgb(15.138245%, 58.48999%, 100%)" offset="0.363281"/><stop stop-opacity="1" stop-color="rgb(15.205383%, 58.280945%, 100%)" offset="0.367187"/><stop stop-opacity="1" stop-color="rgb(15.270996%, 58.070374%, 100%)" offset="0.371094"/><stop stop-opacity="1" stop-color="rgb(15.336609%, 57.861328%, 100%)" offset="0.375"/><stop stop-opacity="1" stop-color="rgb(15.402222%, 57.650757%, 100%)" offset="0.378906"/><stop stop-opacity="1" stop-color="rgb(15.46936%, 57.441711%, 100%)" offset="0.382813"/><stop stop-opacity="1" stop-color="rgb(15.534973%, 57.23114%, 100%)" offset="0.386719"/><stop stop-opacity="1" stop-color="rgb(15.600586%, 57.022095%, 100%)" offset="0.390625"/><stop stop-opacity="1" stop-color="rgb(15.666199%, 56.811523%, 100%)" offset="0.394531"/><stop stop-opacity="1" stop-color="rgb(15.733337%, 56.602478%, 100%)" offset="0.398438"/><stop stop-opacity="1" stop-color="rgb(15.79895%, 56.391907%, 100%)" offset="0.402344"/><stop stop-opacity="1" stop-color="rgb(15.864563%, 56.182861%, 100%)" offset="0.40625"/><stop stop-opacity="1" stop-color="rgb(15.930176%, 55.973816%, 100%)" offset="0.410156"/><stop stop-opacity="1" stop-color="rgb(15.997314%, 55.764771%, 100%)" offset="0.414062"/><stop stop-opacity="1" stop-color="rgb(16.062927%, 55.554199%, 100%)" offset="0.417969"/><stop stop-opacity="1" stop-color="rgb(16.12854%, 55.345154%, 100%)" offset="0.421875"/><stop stop-opacity="1" stop-color="rgb(16.194153%, 55.134583%, 100%)" offset="0.425781"/><stop stop-opacity="1" stop-color="rgb(16.261292%, 54.925537%, 100%)" offset="0.429688"/><stop stop-opacity="1" stop-color="rgb(16.326904%, 54.714966%, 100%)" offset="0.433594"/><stop stop-opacity="1" stop-color="rgb(16.392517%, 54.50592%, 100%)" offset="0.4375"/><stop stop-opacity="1" stop-color="rgb(16.45813%, 54.295349%, 100%)" offset="0.441406"/><stop stop-opacity="1" stop-color="rgb(16.525269%, 54.086304%, 100%)" offset="0.445312"/><stop stop-opacity="1" stop-color="rgb(16.590881%, 53.875732%, 100%)" offset="0.449219"/><stop stop-opacity="1" stop-color="rgb(16.656494%, 53.666687%, 100%)" offset="0.453125"/><stop stop-opacity="1" stop-color="rgb(16.722107%, 53.456116%, 100%)" offset="0.457031"/><stop stop-opacity="1" stop-color="rgb(16.789246%, 53.24707%, 100%)" offset="0.460938"/><stop stop-opacity="1" stop-color="rgb(16.854858%, 53.036499%, 100%)" offset="0.464844"/><stop stop-opacity="1" stop-color="rgb(16.920471%, 52.827454%, 100%)" offset="0.46875"/><stop stop-opacity="1" stop-color="rgb(16.986084%, 52.616882%, 100%)" offset="0.472656"/><stop stop-opacity="1" stop-color="rgb(17.053223%, 52.407837%, 100%)" offset="0.476562"/><stop stop-opacity="1" stop-color="rgb(17.118835%, 52.197266%, 100%)" offset="0.480469"/><stop stop-opacity="1" stop-color="rgb(17.184448%, 51.98822%, 100%)" offset="0.484375"/><stop stop-opacity="1" stop-color="rgb(17.250061%, 51.777649%, 100%)" offset="0.488281"/><stop stop-opacity="1" stop-color="rgb(17.3172%, 51.568604%, 100%)" offset="0.492188"/><stop stop-opacity="1" stop-color="rgb(17.382812%, 51.358032%, 100%)" offset="0.496094"/><stop stop-opacity="1" stop-color="rgb(17.449951%, 51.148987%, 100%)" offset="0.5"/><stop stop-opacity="1" stop-color="rgb(17.515564%, 50.938416%, 100%)" offset="0.503906"/><stop stop-opacity="1" stop-color="rgb(17.581177%, 50.72937%, 100%)" offset="0.507812"/><stop stop-opacity="1" stop-color="rgb(17.64679%, 50.518799%, 100%)" offset="0.511719"/><stop stop-opacity="1" stop-color="rgb(17.713928%, 50.309753%, 100%)" offset="0.515625"/><stop stop-opacity="1" stop-color="rgb(17.779541%, 50.099182%, 100%)" offset="0.519531"/><stop stop-opacity="1" stop-color="rgb(17.845154%, 49.890137%, 100%)" offset="0.523438"/><stop stop-opacity="1" stop-color="rgb(17.910767%, 49.679565%, 100%)" offset="0.527344"/><stop stop-opacity="1" stop-color="rgb(17.977905%, 49.47052%, 100%)" offset="0.53125"/><stop stop-opacity="1" stop-color="rgb(18.043518%, 49.259949%, 100%)" offset="0.535156"/><stop stop-opacity="1" stop-color="rgb(18.109131%, 49.050903%, 100%)" offset="0.539062"/><stop stop-opacity="1" stop-color="rgb(18.174744%, 48.841858%, 100%)" offset="0.542969"/><stop stop-opacity="1" stop-color="rgb(18.241882%, 48.632812%, 100%)" offset="0.546875"/><stop stop-opacity="1" stop-color="rgb(18.307495%, 48.422241%, 100%)" offset="0.550781"/><stop stop-opacity="1" stop-color="rgb(18.373108%, 48.213196%, 100%)" offset="0.554687"/><stop stop-opacity="1" stop-color="rgb(18.438721%, 48.002625%, 100%)" offset="0.558594"/><stop stop-opacity="1" stop-color="rgb(18.505859%, 47.793579%, 100%)" offset="0.5625"/><stop stop-opacity="1" stop-color="rgb(18.571472%, 47.583008%, 100%)" offset="0.566406"/><stop stop-opacity="1" stop-color="rgb(18.637085%, 47.373962%, 100%)" offset="0.570312"/><stop stop-opacity="1" stop-color="rgb(18.702698%, 47.163391%, 100%)" offset="0.574219"/><stop stop-opacity="1" stop-color="rgb(18.769836%, 46.954346%, 100%)" offset="0.578125"/><stop stop-opacity="1" stop-color="rgb(18.835449%, 46.743774%, 100%)" offset="0.582031"/><stop stop-opacity="1" stop-color="rgb(18.901062%, 46.534729%, 100%)" offset="0.585938"/><stop stop-opacity="1" stop-color="rgb(18.966675%, 46.324158%, 100%)" offset="0.589844"/><stop stop-opacity="1" stop-color="rgb(19.033813%, 46.115112%, 100%)" offset="0.59375"/><stop stop-opacity="1" stop-color="rgb(19.099426%, 45.904541%, 100%)" offset="0.597656"/><stop stop-opacity="1" stop-color="rgb(19.165039%, 45.695496%, 100%)" offset="0.601562"/><stop stop-opacity="1" stop-color="rgb(19.230652%, 45.484924%, 100%)" offset="0.605469"/><stop stop-opacity="1" stop-color="rgb(19.297791%, 45.275879%, 100%)" offset="0.609375"/><stop stop-opacity="1" stop-color="rgb(19.363403%, 45.065308%, 100%)" offset="0.613281"/><stop stop-opacity="1" stop-color="rgb(19.429016%, 44.856262%, 100%)" offset="0.617188"/><stop stop-opacity="1" stop-color="rgb(19.494629%, 44.645691%, 100%)" offset="0.621094"/><stop stop-opacity="1" stop-color="rgb(19.561768%, 44.436646%, 100%)" offset="0.625"/><stop stop-opacity="1" stop-color="rgb(19.62738%, 44.226074%, 100%)" offset="0.628906"/><stop stop-opacity="1" stop-color="rgb(19.694519%, 44.017029%, 100%)" offset="0.632812"/><stop stop-opacity="1" stop-color="rgb(19.760132%, 43.806458%, 100%)" offset="0.636719"/><stop stop-opacity="1" stop-color="rgb(19.825745%, 43.597412%, 100%)" offset="0.640625"/><stop stop-opacity="1" stop-color="rgb(19.891357%, 43.386841%, 100%)" offset="0.644531"/><stop stop-opacity="1" stop-color="rgb(19.958496%, 43.177795%, 100%)" offset="0.648438"/><stop stop-opacity="1" stop-color="rgb(20.024109%, 42.967224%, 100%)" offset="0.652344"/><stop stop-opacity="1" stop-color="rgb(20.089722%, 42.758179%, 100%)" offset="0.65625"/><stop stop-opacity="1" stop-color="rgb(20.155334%, 42.547607%, 100%)" offset="0.660156"/><stop stop-opacity="1" stop-color="rgb(20.222473%, 42.338562%, 100%)" offset="0.664062"/><stop stop-opacity="1" stop-color="rgb(20.288086%, 42.127991%, 100%)" offset="0.667969"/><stop stop-opacity="1" stop-color="rgb(20.353699%, 41.918945%, 100%)" offset="0.671875"/><stop stop-opacity="1" stop-color="rgb(20.419312%, 41.708374%, 100%)" offset="0.675781"/><stop stop-opacity="1" stop-color="rgb(20.48645%, 41.499329%, 100%)" offset="0.679688"/><stop stop-opacity="1" stop-color="rgb(20.552063%, 41.290283%, 100%)" offset="0.683594"/><stop stop-opacity="1" stop-color="rgb(20.617676%, 41.081238%, 100%)" offset="0.6875"/><stop stop-opacity="1" stop-color="rgb(20.683289%, 40.870667%, 100%)" offset="0.691406"/><stop stop-opacity="1" stop-color="rgb(20.750427%, 40.661621%, 100%)" offset="0.695312"/><stop stop-opacity="1" stop-color="rgb(20.81604%, 40.45105%, 100%)" offset="0.699219"/><stop stop-opacity="1" stop-color="rgb(20.881653%, 40.242004%, 100%)" offset="0.703125"/><stop stop-opacity="1" stop-color="rgb(20.947266%, 40.031433%, 100%)" offset="0.707031"/><stop stop-opacity="1" stop-color="rgb(21.014404%, 39.822388%, 100%)" offset="0.710938"/><stop stop-opacity="1" stop-color="rgb(21.080017%, 39.611816%, 100%)" offset="0.714844"/><stop stop-opacity="1" stop-color="rgb(21.14563%, 39.402771%, 100%)" offset="0.71875"/><stop stop-opacity="1" stop-color="rgb(21.211243%, 39.1922%, 100%)" offset="0.722656"/><stop stop-opacity="1" stop-color="rgb(21.278381%, 38.983154%, 100%)" offset="0.726562"/><stop stop-opacity="1" stop-color="rgb(21.343994%, 38.772583%, 100%)" offset="0.730469"/><stop stop-opacity="1" stop-color="rgb(21.409607%, 38.563538%, 100%)" offset="0.734375"/><stop stop-opacity="1" stop-color="rgb(21.47522%, 38.352966%, 100%)" offset="0.738281"/><stop stop-opacity="1" stop-color="rgb(21.542358%, 38.143921%, 100%)" offset="0.742188"/><stop stop-opacity="1" stop-color="rgb(21.607971%, 37.93335%, 100%)" offset="0.746094"/><stop stop-opacity="1" stop-color="rgb(21.673584%, 37.724304%, 100%)" offset="0.75"/><stop stop-opacity="1" stop-color="rgb(21.739197%, 37.513733%, 100%)" offset="0.753906"/><stop stop-opacity="1" stop-color="rgb(21.806335%, 37.304688%, 100%)" offset="0.757812"/><stop stop-opacity="1" stop-color="rgb(21.871948%, 37.094116%, 100%)" offset="0.761719"/><stop stop-opacity="1" stop-color="rgb(21.937561%, 36.885071%, 100%)" offset="0.765625"/><stop stop-opacity="1" stop-color="rgb(22.003174%, 36.6745%, 100%)" offset="0.769531"/><stop stop-opacity="1" stop-color="rgb(22.070312%, 36.465454%, 100%)" offset="0.773438"/><stop stop-opacity="1" stop-color="rgb(22.135925%, 36.254883%, 100%)" offset="0.777344"/><stop stop-opacity="1" stop-color="rgb(22.203064%, 36.045837%, 100%)" offset="0.78125"/><stop stop-opacity="1" stop-color="rgb(22.268677%, 35.835266%, 100%)" offset="0.785156"/><stop stop-opacity="1" stop-color="rgb(22.33429%, 35.626221%, 100%)" offset="0.789062"/><stop stop-opacity="1" stop-color="rgb(22.399902%, 35.415649%, 100%)" offset="0.792969"/><stop stop-opacity="1" stop-color="rgb(22.467041%, 35.206604%, 100%)" offset="0.796875"/><stop stop-opacity="1" stop-color="rgb(22.532654%, 34.996033%, 100%)" offset="0.800781"/><stop stop-opacity="1" stop-color="rgb(22.598267%, 34.786987%, 100%)" offset="0.804688"/><stop stop-opacity="1" stop-color="rgb(22.663879%, 34.576416%, 100%)" offset="0.808594"/><stop stop-opacity="1" stop-color="rgb(22.731018%, 34.367371%, 100%)" offset="0.8125"/><stop stop-opacity="1" stop-color="rgb(22.796631%, 34.156799%, 100%)" offset="0.816406"/><stop stop-opacity="1" stop-color="rgb(22.862244%, 33.947754%, 100%)" offset="0.820312"/><stop stop-opacity="1" stop-color="rgb(22.927856%, 33.738708%, 100%)" offset="0.824219"/><stop stop-opacity="1" stop-color="rgb(22.994995%, 33.529663%, 100%)" offset="0.828125"/><stop stop-opacity="1" stop-color="rgb(23.060608%, 33.319092%, 100%)" offset="0.832031"/><stop stop-opacity="1" stop-color="rgb(23.126221%, 33.110046%, 100%)" offset="0.835938"/><stop stop-opacity="1" stop-color="rgb(23.191833%, 32.899475%, 100%)" offset="0.839844"/><stop stop-opacity="1" stop-color="rgb(23.258972%, 32.69043%, 100%)" offset="0.84375"/><stop stop-opacity="1" stop-color="rgb(23.324585%, 32.479858%, 100%)" offset="0.847656"/><stop stop-opacity="1" stop-color="rgb(23.390198%, 32.270813%, 100%)" offset="0.851562"/><stop stop-opacity="1" stop-color="rgb(23.455811%, 32.060242%, 100%)" offset="0.855469"/><stop stop-opacity="1" stop-color="rgb(23.522949%, 31.851196%, 100%)" offset="0.859375"/><stop stop-opacity="1" stop-color="rgb(23.588562%, 31.640625%, 100%)" offset="0.863281"/><stop stop-opacity="1" stop-color="rgb(23.654175%, 31.43158%, 100%)" offset="0.867188"/><stop stop-opacity="1" stop-color="rgb(23.719788%, 31.221008%, 100%)" offset="0.871094"/><stop stop-opacity="1" stop-color="rgb(23.786926%, 31.011963%, 100%)" offset="0.875"/><stop stop-opacity="1" stop-color="rgb(23.852539%, 30.801392%, 100%)" offset="0.878906"/><stop stop-opacity="1" stop-color="rgb(23.918152%, 30.592346%, 100%)" offset="0.882812"/><stop stop-opacity="1" stop-color="rgb(23.983765%, 30.381775%, 100%)" offset="0.886719"/><stop stop-opacity="1" stop-color="rgb(24.050903%, 30.172729%, 100%)" offset="0.890625"/><stop stop-opacity="1" stop-color="rgb(24.116516%, 29.962158%, 100%)" offset="0.894531"/><stop stop-opacity="1" stop-color="rgb(24.182129%, 29.753113%, 100%)" offset="0.898438"/><stop stop-opacity="1" stop-color="rgb(24.247742%, 29.542542%, 100%)" offset="0.902344"/><stop stop-opacity="1" stop-color="rgb(24.31488%, 29.333496%, 100%)" offset="0.90625"/><stop stop-opacity="1" stop-color="rgb(24.380493%, 29.122925%, 100%)" offset="0.910156"/><stop stop-opacity="1" stop-color="rgb(24.447632%, 28.913879%, 100%)" offset="0.914062"/><stop stop-opacity="1" stop-color="rgb(24.513245%, 28.703308%, 100%)" offset="0.917969"/><stop stop-opacity="1" stop-color="rgb(24.578857%, 28.494263%, 100%)" offset="0.921875"/><stop stop-opacity="1" stop-color="rgb(24.64447%, 28.283691%, 100%)" offset="0.925781"/><stop stop-opacity="1" stop-color="rgb(24.711609%, 28.074646%, 100%)" offset="0.929688"/><stop stop-opacity="1" stop-color="rgb(24.777222%, 27.864075%, 100%)" offset="0.933594"/><stop stop-opacity="1" stop-color="rgb(24.842834%, 27.655029%, 100%)" offset="0.9375"/><stop stop-opacity="1" stop-color="rgb(24.908447%, 27.444458%, 100%)" offset="0.941406"/><stop stop-opacity="1" stop-color="rgb(24.975586%, 27.235413%, 100%)" offset="0.945313"/><stop stop-opacity="1" stop-color="rgb(25.041199%, 27.024841%, 100%)" offset="0.949219"/><stop stop-opacity="1" stop-color="rgb(25.106812%, 26.815796%, 100%)" offset="0.953125"/><stop stop-opacity="1" stop-color="rgb(25.172424%, 26.605225%, 100%)" offset="0.957031"/><stop stop-opacity="1" stop-color="rgb(25.239563%, 26.396179%, 100%)" offset="0.960938"/><stop stop-opacity="1" stop-color="rgb(25.305176%, 26.187134%, 100%)" offset="0.964844"/><stop stop-opacity="1" stop-color="rgb(25.370789%, 25.978088%, 100%)" offset="0.96875"/><stop stop-opacity="1" stop-color="rgb(25.436401%, 25.767517%, 100%)" offset="0.972656"/><stop stop-opacity="1" stop-color="rgb(25.50354%, 25.558472%, 100%)" offset="0.976562"/><stop stop-opacity="1" stop-color="rgb(25.569153%, 25.3479%, 100%)" offset="0.980469"/><stop stop-opacity="1" stop-color="rgb(25.634766%, 25.138855%, 100%)" offset="0.984375"/><stop stop-opacity="1" stop-color="rgb(25.700378%, 24.928284%, 100%)" offset="0.988281"/><stop stop-opacity="1" stop-color="rgb(25.767517%, 24.719238%, 100%)" offset="0.992188"/><stop stop-opacity="1" stop-color="rgb(25.83313%, 24.508667%, 100%)" offset="0.996094"/><stop stop-opacity="1" stop-color="rgb(25.898743%, 24.299622%, 100%)" offset="1"/></linearGradient></defs><g fill="#ffffff" fill-opacity="1"><g transform="translate(495.319454, 192.360043)"><g><path d="M 64.640625 2.203125 C 53.390625 2.203125 43.398438 -0.238281 34.671875 -5.125 C 25.953125 -10.007812 19.125 -16.757812 14.1875 -25.375 C 9.25 -34 6.78125 -43.929688 6.78125 -55.171875 C 6.78125 -66.421875 9.222656 -76.351562 14.109375 -84.96875 C 18.992188 -93.59375 25.769531 -100.347656 34.4375 -105.234375 C 43.113281 -110.117188 53.023438 -112.5625 64.171875 -112.5625 C 73.097656 -112.5625 81.34375 -110.984375 88.90625 -107.828125 C 96.476562 -104.679688 102.914062 -100.242188 108.21875 -94.515625 C 113.53125 -88.785156 117.289062 -82.03125 119.5 -74.25 L 92.546875 -74.25 C 89.921875 -79.09375 86.160156 -82.851562 81.265625 -85.53125 C 76.378906 -88.207031 70.835938 -89.546875 64.640625 -89.546875 C 58.222656 -89.546875 52.546875 -88.070312 47.609375 -85.125 C 42.671875 -82.1875 38.804688 -78.140625 36.015625 -72.984375 C 33.234375 -67.835938 31.84375 -61.898438 31.84375 -55.171875 C 31.84375 -48.554688 33.207031 -42.671875 35.9375 -37.515625 C 38.675781 -32.367188 42.515625 -28.296875 47.453125 -25.296875 C 52.390625 -22.304688 58.222656 -20.8125 64.953125 -20.8125 C 73.046875 -20.8125 79.769531 -22.859375 85.125 -26.953125 C 90.488281 -31.054688 93.960938 -36.472656 95.546875 -43.203125 L 59.75 -43.203125 L 59.75 -62.59375 L 122.03125 -62.59375 C 122.65625 -53.132812 121.734375 -44.460938 119.265625 -36.578125 C 116.796875 -28.691406 113.007812 -21.832031 107.90625 -16 C 102.8125 -10.164062 96.613281 -5.671875 89.3125 -2.515625 C 82.007812 0.628906 73.785156 2.203125 64.640625 2.203125 Z M 64.640625 2.203125 "/></g></g></g><g fill="#ffffff" fill-opacity="1"><g transform="translate(623.968919, 192.360043)"><g><path d="M 11.984375 0 L 11.984375 -116.671875 L 35.953125 -116.671875 L 35.953125 0 Z M 11.984375 0 "/></g></g></g><g fill="#ffffff" fill-opacity="1"><g transform="translate(671.897151, 192.360043)"><g><path d="M 52.65625 2.203125 C 43.507812 2.203125 35.441406 0.363281 28.453125 -3.3125 C 21.460938 -6.988281 16 -12.109375 12.0625 -18.671875 C 8.125 -25.242188 6.15625 -32.84375 6.15625 -41.46875 C 6.15625 -50.082031 8.125 -57.644531 12.0625 -64.15625 C 16 -70.675781 21.460938 -75.773438 28.453125 -79.453125 C 35.441406 -83.140625 43.507812 -84.984375 52.65625 -84.984375 C 61.800781 -84.984375 69.867188 -83.140625 76.859375 -79.453125 C 83.847656 -75.773438 89.285156 -70.675781 93.171875 -64.15625 C 97.066406 -57.644531 99.015625 -50.082031 99.015625 -41.46875 C 99.015625 -32.84375 97.066406 -25.242188 93.171875 -18.671875 C 89.285156 -12.109375 83.847656 -6.988281 76.859375 -3.3125 C 69.867188 0.363281 61.800781 2.203125 52.65625 2.203125 Z M 29.796875 -41.46875 C 29.796875 -34.738281 31.921875 -29.21875 36.171875 -24.90625 C 40.429688 -20.601562 45.925781 -18.453125 52.65625 -18.453125 C 59.382812 -18.453125 64.847656 -20.601562 69.046875 -24.90625 C 73.253906 -29.21875 75.359375 -34.738281 75.359375 -41.46875 C 75.359375 -48.300781 73.253906 -53.84375 69.046875 -58.09375 C 64.847656 -62.351562 59.382812 -64.484375 52.65625 -64.484375 C 45.925781 -64.484375 40.429688 -62.351562 36.171875 -58.09375 C 31.921875 -53.84375 29.796875 -48.300781 29.796875 -41.46875 Z M 29.796875 -41.46875 "/></g></g></g><g fill="#ffffff" fill-opacity="1"><g transform="translate(777.055486, 192.360043)"><g><path d="M 11.984375 0 L 11.984375 -82.765625 L 29.796875 -82.765625 L 32.953125 -71.734375 C 35.679688 -75.617188 39.039062 -78.425781 43.03125 -80.15625 C 47.03125 -81.894531 52.078125 -82.765625 58.171875 -82.765625 L 67.15625 -82.765625 L 67.15625 -61.015625 L 58.015625 -61.015625 C 51.179688 -61.015625 45.796875 -59.175781 41.859375 -55.5 C 37.921875 -51.820312 35.953125 -45.515625 35.953125 -36.578125 L 35.953125 0 Z M 11.984375 0 "/></g></g></g><g fill="#ffffff" fill-opacity="1"><g transform="translate(849.578454, 192.360043)"><g><path d="M 12.296875 31.53125 L 12.296875 10.875 L 21.75 10.875 C 26.695312 10.875 30.242188 10.113281 32.390625 8.59375 C 34.546875 7.070312 36.3125 4.257812 37.6875 0.15625 L 38.625 -2.6875 L 1.421875 -82.765625 L 27.90625 -82.765625 L 50.140625 -31.53125 L 57.703125 -52.65625 L 68.734375 -82.765625 L 94.4375 -82.765625 L 57.546875 9.78125 C 55.335938 15.445312 52.8125 19.859375 49.96875 23.015625 C 47.132812 26.171875 43.613281 28.378906 39.40625 29.640625 C 35.207031 30.898438 29.898438 31.53125 23.484375 31.53125 Z M 12.296875 31.53125 "/></g></g></g><g fill="#ffffff" fill-opacity="1"><g transform="translate(495.319454, 353.960322)"><g><path d="M 13.25 0 L 13.25 -110.359375 L 38.3125 -110.359375 L 38.3125 0 Z M 13.25 0 "/></g></g></g><g fill="#ffffff" fill-opacity="1"><g transform="translate(546.873832, 353.960322)"><g><path d="M 11.984375 0 L 11.984375 -82.765625 L 29.796875 -82.765625 L 32.15625 -74.25 C 35.207031 -77.820312 38.910156 -80.503906 43.265625 -82.296875 C 47.628906 -84.085938 52.441406 -84.984375 57.703125 -84.984375 C 69.890625 -84.984375 78.984375 -80.460938 84.984375 -71.421875 C 88.335938 -75.722656 92.5625 -79.054688 97.65625 -81.421875 C 102.757812 -83.796875 108.46875 -84.984375 114.78125 -84.984375 C 125.394531 -84.984375 133.828125 -81.695312 140.078125 -75.125 C 146.328125 -68.550781 149.453125 -59.59375 149.453125 -48.25 L 149.453125 0 L 125.5 0 L 125.5 -45.40625 C 125.5 -51.289062 124.050781 -55.941406 121.15625 -59.359375 C 118.269531 -62.773438 114.351562 -64.484375 109.40625 -64.484375 C 104.257812 -64.484375 100.160156 -62.695312 97.109375 -59.125 C 94.066406 -55.550781 92.546875 -50.769531 92.546875 -44.78125 L 92.546875 0 L 68.890625 0 L 68.890625 -45.40625 C 68.890625 -51.289062 67.441406 -55.941406 64.546875 -59.359375 C 61.660156 -62.773438 57.75 -64.484375 52.8125 -64.484375 C 47.664062 -64.484375 43.566406 -62.695312 40.515625 -59.125 C 37.472656 -55.550781 35.953125 -50.769531 35.953125 -44.78125 L 35.953125 0 Z M 11.984375 0 "/></g></g></g><g fill="#ffffff" fill-opacity="1"><g transform="translate(706.739733, 353.960322)"><g><path d="M 62.109375 2.203125 C 56.960938 2.203125 52.179688 1.441406 47.765625 -0.078125 C 43.347656 -1.597656 39.410156 -3.726562 35.953125 -6.46875 L 35.953125 31.53125 L 11.984375 31.53125 L 11.984375 -82.765625 L 29.796875 -82.765625 L 32.484375 -73.3125 C 36.160156 -76.988281 40.519531 -79.851562 45.5625 -81.90625 C 50.601562 -83.957031 56.117188 -84.984375 62.109375 -84.984375 C 70.421875 -84.984375 77.726562 -83.113281 84.03125 -79.375 C 90.332031 -75.644531 95.296875 -70.519531 98.921875 -64 C 102.554688 -57.488281 104.375 -49.976562 104.375 -41.46875 C 104.375 -32.945312 102.554688 -25.398438 98.921875 -18.828125 C 95.296875 -12.265625 90.332031 -7.117188 84.03125 -3.390625 C 77.726562 0.335938 70.421875 2.203125 62.109375 2.203125 Z M 35 -41.46875 C 35 -34.738281 37.125 -29.21875 41.375 -24.90625 C 45.632812 -20.601562 51.128906 -18.453125 57.859375 -18.453125 C 64.691406 -18.453125 70.207031 -20.601562 74.40625 -24.90625 C 78.613281 -29.21875 80.71875 -34.738281 80.71875 -41.46875 C 80.71875 -48.1875 78.613281 -53.703125 74.40625 -58.015625 C 70.207031 -62.328125 64.691406 -64.484375 57.859375 -64.484375 C 51.128906 -64.484375 45.632812 -62.328125 41.375 -58.015625 C 37.125 -53.703125 35 -48.1875 35 -41.46875 Z M 35 -41.46875 "/></g></g></g><g fill="#ffffff" fill-opacity="1"><g transform="translate(817.258471, 353.960322)"><g><path d="M 39.578125 1.578125 C 29.796875 1.578125 22.066406 -0.707031 16.390625 -5.28125 C 10.710938 -9.851562 7.875 -16.132812 7.875 -24.125 C 7.875 -31.789062 10.421875 -37.910156 15.515625 -42.484375 C 20.617188 -47.054688 27.484375 -49.34375 36.109375 -49.34375 L 66.0625 -49.34375 L 66.0625 -53.125 C 66.0625 -57.226562 64.585938 -60.515625 61.640625 -62.984375 C 58.703125 -65.453125 54.867188 -66.6875 50.140625 -66.6875 C 46.242188 -66.6875 42.929688 -65.789062 40.203125 -64 C 37.472656 -62.21875 35.738281 -59.851562 35 -56.90625 L 11.984375 -56.90625 C 13.453125 -65.945312 17.523438 -72.882812 24.203125 -77.71875 C 30.878906 -82.5625 39.472656 -84.984375 49.984375 -84.984375 C 62.378906 -84.984375 72.070312 -81.851562 79.0625 -75.59375 C 86.050781 -69.34375 89.546875 -60.75 89.546875 -49.8125 L 89.546875 0 L 71.734375 0 L 69.046875 -9.609375 C 61.796875 -2.148438 51.972656 1.578125 39.578125 1.578125 Z M 31.53125 -25.0625 C 31.53125 -22.226562 32.765625 -19.941406 35.234375 -18.203125 C 37.703125 -16.472656 40.988281 -15.609375 45.09375 -15.609375 C 51.082031 -15.609375 56.046875 -17.34375 59.984375 -20.8125 C 63.929688 -24.28125 66.007812 -28.800781 66.21875 -34.375 L 43.515625 -34.375 C 39.941406 -34.375 37.050781 -33.53125 34.84375 -31.84375 C 32.632812 -30.164062 31.53125 -27.90625 31.53125 -25.0625 Z M 31.53125 -25.0625 "/></g></g></g><g fill="#ffffff" fill-opacity="1"><g transform="translate(917.214037, 353.960322)"><g><path d="M 51.390625 2.203125 C 42.566406 2.203125 34.738281 0.335938 27.90625 -3.390625 C 21.070312 -7.117188 15.738281 -12.265625 11.90625 -18.828125 C 8.070312 -25.398438 6.15625 -32.945312 6.15625 -41.46875 C 6.15625 -49.976562 8.070312 -57.488281 11.90625 -64 C 15.738281 -70.519531 21.070312 -75.644531 27.90625 -79.375 C 34.738281 -83.113281 42.566406 -84.984375 51.390625 -84.984375 C 59.066406 -84.984375 66.03125 -83.585938 72.28125 -80.796875 C 78.539062 -78.015625 83.71875 -74.070312 87.8125 -68.96875 C 91.914062 -63.875 94.597656 -57.910156 95.859375 -51.078125 L 72.84375 -51.078125 C 70.84375 -55.285156 68.003906 -58.570312 64.328125 -60.9375 C 60.648438 -63.300781 56.445312 -64.484375 51.71875 -64.484375 C 45.300781 -64.484375 40.039062 -62.351562 35.9375 -58.09375 C 31.84375 -53.84375 29.796875 -48.300781 29.796875 -41.46875 C 29.796875 -34.738281 31.84375 -29.21875 35.9375 -24.90625 C 40.039062 -20.601562 45.300781 -18.453125 51.71875 -18.453125 C 56.757812 -18.453125 61.195312 -19.789062 65.03125 -22.46875 C 68.863281 -25.144531 71.625 -28.742188 73.3125 -33.265625 L 96.640625 -33.265625 C 95.171875 -26.015625 92.359375 -19.734375 88.203125 -14.421875 C 84.054688 -9.117188 78.828125 -5.019531 72.515625 -2.125 C 66.210938 0.757812 59.171875 2.203125 51.390625 2.203125 Z M 51.390625 2.203125 "/></g></g></g><g fill="#ffffff" fill-opacity="1"><g transform="translate(1019.69214, 353.960322)"><g><path d="M 51.875 0 C 41.363281 0 33.296875 -2.703125 27.671875 -8.109375 C 22.046875 -13.523438 19.234375 -21.28125 19.234375 -31.375 L 19.234375 -63.21875 L 3.15625 -63.21875 L 3.15625 -82.765625 L 10.5625 -82.765625 C 15.082031 -82.765625 18.15625 -83.5 19.78125 -84.96875 C 21.414062 -86.445312 22.546875 -89.285156 23.171875 -93.484375 L 24.59375 -104.203125 L 43.203125 -104.203125 L 43.203125 -82.765625 L 65.90625 -82.765625 L 65.90625 -63.21875 L 43.203125 -63.21875 L 43.203125 -35 C 43.203125 -25.539062 47.828125 -20.8125 57.078125 -20.8125 L 67 -20.8125 L 67 0 Z M 51.875 0 "/></g></g></g><g fill="#17c7ff" fill-opacity="1"><g transform="translate(495.319454, 452.921114)"><g><path d="M 21.75 0.6875 C 19.050781 0.6875 16.5625 0.210938 14.28125 -0.734375 C 12.007812 -1.679688 10.03125 -3.003906 8.34375 -4.703125 C 6.664062 -6.398438 5.363281 -8.410156 4.4375 -10.734375 C 3.507812 -13.066406 3.046875 -15.617188 3.046875 -18.390625 C 3.046875 -21.160156 3.5 -23.703125 4.40625 -26.015625 C 5.320312 -28.328125 6.617188 -30.335938 8.296875 -32.046875 C 9.984375 -33.765625 11.957031 -35.097656 14.21875 -36.046875 C 16.476562 -36.992188 18.957031 -37.46875 21.65625 -37.46875 C 24.457031 -37.46875 27.046875 -36.957031 29.421875 -35.9375 C 31.804688 -34.925781 33.863281 -33.507812 35.59375 -31.6875 C 37.332031 -29.863281 38.585938 -27.742188 39.359375 -25.328125 L 34.3125 -25.328125 C 33.15625 -27.710938 31.488281 -29.5625 29.3125 -30.875 C 27.144531 -32.1875 24.644531 -32.84375 21.8125 -32.84375 C 19.070312 -32.84375 16.640625 -32.226562 14.515625 -31 C 12.398438 -29.769531 10.75 -28.066406 9.5625 -25.890625 C 8.375 -23.722656 7.78125 -21.222656 7.78125 -18.390625 C 7.78125 -15.554688 8.382812 -13.050781 9.59375 -10.875 C 10.800781 -8.707031 12.460938 -7.007812 14.578125 -5.78125 C 16.703125 -4.550781 19.128906 -3.9375 21.859375 -3.9375 C 24.347656 -3.9375 26.554688 -4.425781 28.484375 -5.40625 C 30.410156 -6.394531 31.976562 -7.753906 33.1875 -9.484375 C 34.394531 -11.210938 35.15625 -13.234375 35.46875 -15.546875 L 20.5 -15.546875 L 20.5 -19.96875 L 40.46875 -19.96875 C 40.53125 -15.9375 39.78125 -12.367188 38.21875 -9.265625 C 36.664062 -6.171875 34.476562 -3.738281 31.65625 -1.96875 C 28.832031 -0.195312 25.53125 0.6875 21.75 0.6875 Z M 21.75 0.6875 "/></g></g></g><g fill="#17c7ff" fill-opacity="1"><g transform="translate(555.107573, 452.921114)"><g><path d="M 5.359375 0 L 5.359375 -36.78125 L 9.984375 -36.78125 L 9.984375 -4.40625 L 27.84375 -4.40625 L 27.84375 0 Z M 5.359375 0 "/></g></g></g><g fill="#17c7ff" fill-opacity="1"><g transform="translate(601.027173, 452.921114)"><g><path d="M 22.0625 0.6875 C 18.351562 0.6875 15.0625 -0.125 12.1875 -1.75 C 9.3125 -3.382812 7.066406 -5.640625 5.453125 -8.515625 C 3.847656 -11.390625 3.046875 -14.679688 3.046875 -18.390625 C 3.046875 -22.140625 3.847656 -25.441406 5.453125 -28.296875 C 7.066406 -31.148438 9.3125 -33.390625 12.1875 -35.015625 C 15.0625 -36.648438 18.351562 -37.46875 22.0625 -37.46875 C 25.8125 -37.46875 29.113281 -36.648438 31.96875 -35.015625 C 34.820312 -33.390625 37.0625 -31.148438 38.6875 -28.296875 C 40.320312 -25.441406 41.140625 -22.140625 41.140625 -18.390625 C 41.140625 -14.679688 40.320312 -11.390625 38.6875 -8.515625 C 37.0625 -5.640625 34.820312 -3.382812 31.96875 -1.75 C 29.113281 -0.125 25.8125 0.6875 22.0625 0.6875 Z M 7.78125 -18.390625 C 7.78125 -15.554688 8.382812 -13.050781 9.59375 -10.875 C 10.800781 -8.707031 12.476562 -7.007812 14.625 -5.78125 C 16.78125 -4.550781 19.257812 -3.9375 22.0625 -3.9375 C 24.90625 -3.9375 27.394531 -4.550781 29.53125 -5.78125 C 31.664062 -7.007812 33.335938 -8.707031 34.546875 -10.875 C 35.753906 -13.050781 36.359375 -15.554688 36.359375 -18.390625 C 36.359375 -21.265625 35.753906 -23.773438 34.546875 -25.921875 C 33.335938 -28.078125 31.664062 -29.769531 29.53125 -31 C 27.394531 -32.226562 24.90625 -32.84375 22.0625 -32.84375 C 19.257812 -32.84375 16.78125 -32.226562 14.625 -31 C 12.476562 -29.769531 10.800781 -28.078125 9.59375 -25.921875 C 8.382812 -23.773438 7.78125 -21.265625 7.78125 -18.390625 Z M 7.78125 -18.390625 "/></g></g></g><g fill="#17c7ff" fill-opacity="1"><g transform="translate(661.603266, 452.921114)"><g><path d="M 5.359375 0 L 5.359375 -36.78125 L 19.59375 -36.78125 C 23.132812 -36.78125 25.960938 -35.894531 28.078125 -34.125 C 30.203125 -32.351562 31.265625 -29.984375 31.265625 -27.015625 C 31.265625 -25.222656 30.84375 -23.644531 30 -22.28125 C 29.164062 -20.914062 27.992188 -19.847656 26.484375 -19.078125 C 28.378906 -18.304688 29.820312 -17.164062 30.8125 -15.65625 C 31.8125 -14.15625 32.3125 -12.367188 32.3125 -10.296875 C 32.3125 -7.109375 31.234375 -4.59375 29.078125 -2.75 C 26.929688 -0.914062 24 0 20.28125 0 Z M 9.984375 -4.3125 L 20.171875 -4.3125 C 22.554688 -4.3125 24.390625 -4.851562 25.671875 -5.9375 C 26.953125 -7.019531 27.59375 -8.546875 27.59375 -10.515625 C 27.59375 -12.472656 26.941406 -13.984375 25.640625 -15.046875 C 24.347656 -16.117188 22.507812 -16.65625 20.125 -16.65625 L 9.984375 -16.65625 Z M 9.984375 -20.859375 L 19.5 -20.859375 C 21.769531 -20.859375 23.507812 -21.363281 24.71875 -22.375 C 25.925781 -23.394531 26.53125 -24.816406 26.53125 -26.640625 C 26.53125 -28.492188 25.914062 -29.925781 24.6875 -30.9375 C 23.46875 -31.957031 21.738281 -32.46875 19.5 -32.46875 L 9.984375 -32.46875 Z M 9.984375 -20.859375 "/></g></g></g><g fill="#17c7ff" fill-opacity="1"><g transform="translate(713.301442, 452.921114)"><g><path d="M 0.890625 0 L 16.03125 -36.78125 L 20.328125 -36.78125 L 35.46875 0 L 30.578125 0 L 27.109375 -8.359375 L 9.203125 -8.359375 L 5.828125 0 Z M 10.984375 -12.65625 L 25.375 -12.65625 L 18.1875 -30.3125 Z M 10.984375 -12.65625 "/></g></g></g><g fill="#17c7ff" fill-opacity="1"><g transform="translate(766.102745, 452.921114)"><g><path d="M 5.359375 0 L 5.359375 -36.78125 L 9.984375 -36.78125 L 9.984375 -4.40625 L 27.84375 -4.40625 L 27.84375 0 Z M 5.359375 0 "/></g></g></g><g fill="#17c7ff" fill-opacity="1"><g transform="translate(812.022352, 452.921114)"><g/></g></g><g fill="#17c7ff" fill-opacity="1"><g transform="translate(841.49936, 452.921114)"><g><path d="M 21.65625 0.6875 C 18.957031 0.6875 16.46875 0.210938 14.1875 -0.734375 C 11.90625 -1.679688 9.929688 -3.003906 8.265625 -4.703125 C 6.609375 -6.398438 5.320312 -8.410156 4.40625 -10.734375 C 3.5 -13.066406 3.046875 -15.617188 3.046875 -18.390625 C 3.046875 -21.160156 3.5 -23.707031 4.40625 -26.03125 C 5.320312 -28.363281 6.609375 -30.378906 8.265625 -32.078125 C 9.929688 -33.773438 11.90625 -35.097656 14.1875 -36.046875 C 16.46875 -36.992188 18.957031 -37.46875 21.65625 -37.46875 C 24.5625 -37.46875 27.226562 -36.929688 29.65625 -35.859375 C 32.09375 -34.796875 34.175781 -33.273438 35.90625 -31.296875 C 37.644531 -29.316406 38.914062 -26.976562 39.71875 -24.28125 L 34.78125 -24.28125 C 33.84375 -26.9375 32.207031 -29.023438 29.875 -30.546875 C 27.539062 -32.078125 24.851562 -32.84375 21.8125 -32.84375 C 19.070312 -32.84375 16.648438 -32.226562 14.546875 -31 C 12.453125 -29.769531 10.800781 -28.066406 9.59375 -25.890625 C 8.382812 -23.722656 7.78125 -21.222656 7.78125 -18.390625 C 7.78125 -15.554688 8.382812 -13.050781 9.59375 -10.875 C 10.800781 -8.707031 12.453125 -7.007812 14.546875 -5.78125 C 16.648438 -4.550781 19.070312 -3.9375 21.8125 -3.9375 C 24.925781 -3.9375 27.691406 -4.742188 30.109375 -6.359375 C 32.523438 -7.972656 34.207031 -10.160156 35.15625 -12.921875 L 40.046875 -12.921875 C 39.304688 -10.191406 38.050781 -7.8125 36.28125 -5.78125 C 34.507812 -3.75 32.367188 -2.160156 29.859375 -1.015625 C 27.359375 0.117188 24.625 0.6875 21.65625 0.6875 Z M 21.65625 0.6875 "/></g></g></g><g fill="#17c7ff" fill-opacity="1"><g transform="translate(900.81471, 452.921114)"><g><path d="M 22.0625 0.6875 C 18.351562 0.6875 15.0625 -0.125 12.1875 -1.75 C 9.3125 -3.382812 7.066406 -5.640625 5.453125 -8.515625 C 3.847656 -11.390625 3.046875 -14.679688 3.046875 -18.390625 C 3.046875 -22.140625 3.847656 -25.441406 5.453125 -28.296875 C 7.066406 -31.148438 9.3125 -33.390625 12.1875 -35.015625 C 15.0625 -36.648438 18.351562 -37.46875 22.0625 -37.46875 C 25.8125 -37.46875 29.113281 -36.648438 31.96875 -35.015625 C 34.820312 -33.390625 37.0625 -31.148438 38.6875 -28.296875 C 40.320312 -25.441406 41.140625 -22.140625 41.140625 -18.390625 C 41.140625 -14.679688 40.320312 -11.390625 38.6875 -8.515625 C 37.0625 -5.640625 34.820312 -3.382812 31.96875 -1.75 C 29.113281 -0.125 25.8125 0.6875 22.0625 0.6875 Z M 7.78125 -18.390625 C 7.78125 -15.554688 8.382812 -13.050781 9.59375 -10.875 C 10.800781 -8.707031 12.476562 -7.007812 14.625 -5.78125 C 16.78125 -4.550781 19.257812 -3.9375 22.0625 -3.9375 C 24.90625 -3.9375 27.394531 -4.550781 29.53125 -5.78125 C 31.664062 -7.007812 33.335938 -8.707031 34.546875 -10.875 C 35.753906 -13.050781 36.359375 -15.554688 36.359375 -18.390625 C 36.359375 -21.265625 35.753906 -23.773438 34.546875 -25.921875 C 33.335938 -28.078125 31.664062 -29.769531 29.53125 -31 C 27.394531 -32.226562 24.90625 -32.84375 22.0625 -32.84375 C 19.257812 -32.84375 16.78125 -32.226562 14.625 -31 C 12.476562 -29.769531 10.800781 -28.078125 9.59375 -25.921875 C 8.382812 -23.773438 7.78125 -21.265625 7.78125 -18.390625 Z M 7.78125 -18.390625 "/></g></g></g><g fill="#17c7ff" fill-opacity="1"><g transform="translate(961.390817, 452.921114)"><g><path d="M 5.359375 0 L 5.359375 -36.78125 L 9.71875 -36.78125 L 30.0625 -7.984375 L 30.0625 -36.78125 L 34.578125 -36.78125 L 34.578125 0 L 30.265625 0 L 9.9375 -28.796875 L 9.9375 0 Z M 5.359375 0 "/></g></g></g><g fill="#17c7ff" fill-opacity="1"><g transform="translate(1017.764288, 452.921114)"><g><path d="M 5.359375 0 L 5.359375 -36.78125 L 9.71875 -36.78125 L 30.0625 -7.984375 L 30.0625 -36.78125 L 34.578125 -36.78125 L 34.578125 0 L 30.265625 0 L 9.9375 -28.796875 L 9.9375 0 Z M 5.359375 0 "/></g></g></g><g fill="#17c7ff" fill-opacity="1"><g transform="translate(1074.137789, 452.921114)"><g><path d="M 5.359375 0 L 5.359375 -36.78125 L 27.6875 -36.78125 L 27.6875 -32.46875 L 9.984375 -32.46875 L 9.984375 -20.859375 L 26.375 -20.859375 L 26.375 -16.609375 L 9.984375 -16.609375 L 9.984375 -4.3125 L 28.265625 -4.3125 L 28.265625 0 Z M 5.359375 0 "/></g></g></g><g fill="#17c7ff" fill-opacity="1"><g transform="translate(1122.263768, 452.921114)"><g><path d="M 21.65625 0.6875 C 18.957031 0.6875 16.46875 0.210938 14.1875 -0.734375 C 11.90625 -1.679688 9.929688 -3.003906 8.265625 -4.703125 C 6.609375 -6.398438 5.320312 -8.410156 4.40625 -10.734375 C 3.5 -13.066406 3.046875 -15.617188 3.046875 -18.390625 C 3.046875 -21.160156 3.5 -23.707031 4.40625 -26.03125 C 5.320312 -28.363281 6.609375 -30.378906 8.265625 -32.078125 C 9.929688 -33.773438 11.90625 -35.097656 14.1875 -36.046875 C 16.46875 -36.992188 18.957031 -37.46875 21.65625 -37.46875 C 24.5625 -37.46875 27.226562 -36.929688 29.65625 -35.859375 C 32.09375 -34.796875 34.175781 -33.273438 35.90625 -31.296875 C 37.644531 -29.316406 38.914062 -26.976562 39.71875 -24.28125 L 34.78125 -24.28125 C 33.84375 -26.9375 32.207031 -29.023438 29.875 -30.546875 C 27.539062 -32.078125 24.851562 -32.84375 21.8125 -32.84375 C 19.070312 -32.84375 16.648438 -32.226562 14.546875 -31 C 12.453125 -29.769531 10.800781 -28.066406 9.59375 -25.890625 C 8.382812 -23.722656 7.78125 -21.222656 7.78125 -18.390625 C 7.78125 -15.554688 8.382812 -13.050781 9.59375 -10.875 C 10.800781 -8.707031 12.453125 -7.007812 14.546875 -5.78125 C 16.648438 -4.550781 19.070312 -3.9375 21.8125 -3.9375 C 24.925781 -3.9375 27.691406 -4.742188 30.109375 -6.359375 C 32.523438 -7.972656 34.207031 -10.160156 35.15625 -12.921875 L 40.046875 -12.921875 C 39.304688 -10.191406 38.050781 -7.8125 36.28125 -5.78125 C 34.507812 -3.75 32.367188 -2.160156 29.859375 -1.015625 C 27.359375 0.117188 24.625 0.6875 21.65625 0.6875 Z M 21.65625 0.6875 "/></g></g></g><g fill="#17c7ff" fill-opacity="1"><g transform="translate(1181.579117, 452.921114)"><g><path d="M 14.234375 0 L 14.234375 -32.375 L 1.78125 -32.375 L 1.78125 -36.78125 L 31.265625 -36.78125 L 31.265625 -32.375 L 18.859375 -32.375 L 18.859375 0 Z M 14.234375 0 "/></g></g></g><g fill="#17c7ff" fill-opacity="1"><g transform="translate(1231.123426, 452.921114)"><g><path d="M 5.359375 0 L 5.359375 -36.78125 L 9.984375 -36.78125 L 9.984375 0 Z M 5.359375 0 "/></g></g></g><g fill="#17c7ff" fill-opacity="1"><g transform="translate(1262.911874, 452.921114)"><g><path d="M 22.0625 0.6875 C 18.351562 0.6875 15.0625 -0.125 12.1875 -1.75 C 9.3125 -3.382812 7.066406 -5.640625 5.453125 -8.515625 C 3.847656 -11.390625 3.046875 -14.679688 3.046875 -18.390625 C 3.046875 -22.140625 3.847656 -25.441406 5.453125 -28.296875 C 7.066406 -31.148438 9.3125 -33.390625 12.1875 -35.015625 C 15.0625 -36.648438 18.351562 -37.46875 22.0625 -37.46875 C 25.8125 -37.46875 29.113281 -36.648438 31.96875 -35.015625 C 34.820312 -33.390625 37.0625 -31.148438 38.6875 -28.296875 C 40.320312 -25.441406 41.140625 -22.140625 41.140625 -18.390625 C 41.140625 -14.679688 40.320312 -11.390625 38.6875 -8.515625 C 37.0625 -5.640625 34.820312 -3.382812 31.96875 -1.75 C 29.113281 -0.125 25.8125 0.6875 22.0625 0.6875 Z M 7.78125 -18.390625 C 7.78125 -15.554688 8.382812 -13.050781 9.59375 -10.875 C 10.800781 -8.707031 12.476562 -7.007812 14.625 -5.78125 C 16.78125 -4.550781 19.257812 -3.9375 22.0625 -3.9375 C 24.90625 -3.9375 27.394531 -4.550781 29.53125 -5.78125 C 31.664062 -7.007812 33.335938 -8.707031 34.546875 -10.875 C 35.753906 -13.050781 36.359375 -15.554688 36.359375 -18.390625 C 36.359375 -21.265625 35.753906 -23.773438 34.546875 -25.921875 C 33.335938 -28.078125 31.664062 -29.769531 29.53125 -31 C 27.394531 -32.226562 24.90625 -32.84375 22.0625 -32.84375 C 19.257812 -32.84375 16.78125 -32.226562 14.625 -31 C 12.476562 -29.769531 10.800781 -28.078125 9.59375 -25.921875 C 8.382812 -23.773438 7.78125 -21.265625 7.78125 -18.390625 Z M 7.78125 -18.390625 "/></g></g></g><g fill="#17c7ff" fill-opacity="1"><g transform="translate(1323.487982, 452.921114)"><g><path d="M 5.359375 0 L 5.359375 -36.78125 L 9.71875 -36.78125 L 30.0625 -7.984375 L 30.0625 -36.78125 L 34.578125 -36.78125 L 34.578125 0 L 30.265625 0 L 9.9375 -28.796875 L 9.9375 0 Z M 5.359375 0 "/></g></g></g><g clip-path="url(#3097ee18bf)"><g clip-path="url(#ec5acab395)"><path fill="url(#6b05c42bf2)" d="M 20.089844 49.269531 L 20.089844 469.296875 L 440.121094 469.296875 L 440.121094 49.269531 Z M 20.089844 49.269531 " fill-rule="nonzero"/></g></g></svg>